<svg width="14" height="14" viewBox="0 0 14 14" fill="none" xmlns="http://www.w3.org/2000/svg">
<path d="M12.4444 12.4444H11.3361L3.73333 4.84167L4.84167 3.73333L12.4444 11.3361V12.4444ZM14 14V10.6944L3.73333 0.447222C3.57778 0.30463 3.40602 0.194444 3.21806 0.116667C3.03009 0.0388889 2.83241 0 2.625 0C2.41759 0 2.21667 0.0388889 2.02222 0.116667C1.82778 0.194444 1.65926 0.311111 1.51667 0.466667L0.447222 1.55556C0.291666 1.69815 0.17824 1.86667 0.106944 2.06111C0.0356476 2.25556 -5.06639e-07 2.45 -5.06639e-07 2.64444C-5.06639e-07 2.85185 0.0356476 3.04954 0.106944 3.2375C0.17824 3.42546 0.291666 3.59722 0.447222 3.75278L10.6944 14H14ZM4.29722 4.29722L4.84167 3.73333L3.73333 4.84167L4.29722 4.29722Z" fill="#5D626D"/>
</svg>
