<svg width="45" height="43" viewBox="0 0 45 43" fill="none" xmlns="http://www.w3.org/2000/svg">
<path d="M39.8875 42.875L26.8844 29.8719L31.8719 24.8844L44.875 37.8875L39.8875 42.875ZM7.1125 42.875L2.125 37.8875L18.5125 21.5L14.475 17.4625L12.8125 19.125L9.78438 16.0969V20.9657L8.12187 22.6282L0.9375 15.4438L2.6 13.7813H7.46875L4.5 10.8125L12.9312 2.3813C13.7229 1.58963 14.574 1.01567 15.4844 0.659424C16.3948 0.303174 17.325 0.125049 18.275 0.125049C19.225 0.125049 20.1552 0.303174 21.0656 0.659424C21.976 1.01567 22.8271 1.58963 23.6187 2.3813L18.1562 7.8438L21.125 10.8125L19.4625 12.475L23.5 16.5125L28.8438 11.1688C28.6854 10.7334 28.5568 10.2782 28.4578 9.80317C28.3589 9.32817 28.3094 8.85317 28.3094 8.37817C28.3094 6.04276 29.1109 4.07349 30.7141 2.47036C32.3172 0.867236 34.2865 0.0656738 36.6219 0.0656738C37.2156 0.0656738 37.7797 0.125049 38.3141 0.243799C38.8484 0.362549 39.3927 0.540674 39.9469 0.778174L34.0687 6.6563L38.3438 10.9313L44.2219 5.05317C44.499 5.60734 44.687 6.15161 44.7859 6.68599C44.8849 7.22036 44.9344 7.78442 44.9344 8.37817C44.9344 10.7136 44.1328 12.6829 42.5297 14.286C40.9266 15.8891 38.9573 16.6907 36.6219 16.6907C36.1469 16.6907 35.6719 16.6511 35.1969 16.5719C34.7219 16.4928 34.2667 16.3542 33.8312 16.1563L7.1125 42.875Z" fill="#EFEFEF"/>
</svg>
