<svg width="42" height="52" viewBox="0 0 42 52" fill="none" xmlns="http://www.w3.org/2000/svg">
<path d="M41.3213 7.75879V23.5088C41.3212 30.0504 39.3734 36.0002 35.4785 41.3584C31.5843 46.7156 26.6471 50.1467 20.667 51.6533C14.6866 50.1468 9.74882 46.7158 5.85449 41.3584C1.95964 36.0002 0.0127854 30.0503 0.0126953 23.5088V7.75781L20.666 0.0126953L41.3213 7.75879ZM20.6621 5.47754L5.1543 11.293V24.6709C5.1543 24.9733 5.19703 25.362 5.2832 25.8359L5.28516 25.8457H20.6543V46.2588L20.6699 46.2539C24.8491 44.9614 28.3396 42.4081 31.1396 38.5957C33.9393 34.7837 35.5759 30.5299 36.0498 25.835L36.0518 25.8213H20.6787V5.47168L20.6621 5.47754Z" fill="#EFEFEF" stroke="#272727" stroke-width="0.025"/>
</svg>
