<svg width="44" height="40" viewBox="0 0 44 40" fill="none" xmlns="http://www.w3.org/2000/svg">
<path d="M19.8333 39.5V35.1667H37.1667V19.7833C37.1667 15.5583 35.6951 11.9743 32.7521 9.03125C29.809 6.08819 26.225 4.61667 22 4.61667C17.775 4.61667 14.191 6.08819 11.2479 9.03125C8.30486 11.9743 6.83333 15.5583 6.83333 19.7833V33H4.66667C3.475 33 2.45486 32.5757 1.60625 31.7271C0.757639 30.8785 0.333333 29.8583 0.333333 28.6667V24.3333C0.333333 23.575 0.522916 22.8618 0.902083 22.1938C1.28125 21.5257 1.81389 20.9931 2.5 20.5958L2.6625 17.725C2.95139 15.2694 3.66458 12.9944 4.80208 10.9C5.93958 8.80556 7.36597 6.98194 9.08125 5.42917C10.7965 3.87639 12.7646 2.66667 14.9854 1.8C17.2062 0.933333 19.5444 0.5 22 0.5C24.4556 0.5 26.7847 0.933333 28.9875 1.8C31.1903 2.66667 33.1583 3.86736 34.8917 5.40208C36.625 6.93681 38.0514 8.75139 39.1708 10.8458C40.2903 12.9403 41.0125 15.2153 41.3375 17.6708L41.5 20.4875C42.1861 20.8125 42.7187 21.3 43.0979 21.95C43.4771 22.6 43.6667 23.2861 43.6667 24.0083V28.9917C43.6667 29.7139 43.4771 30.4 43.0979 31.05C42.7187 31.7 42.1861 32.1875 41.5 32.5125V35.1667C41.5 36.3583 41.0757 37.3785 40.2271 38.2271C39.3785 39.0757 38.3583 39.5 37.1667 39.5H19.8333ZM15.5 24.3333C14.8861 24.3333 14.3715 24.1257 13.9562 23.7104C13.541 23.2951 13.3333 22.7806 13.3333 22.1667C13.3333 21.5528 13.541 21.0382 13.9562 20.6229C14.3715 20.2076 14.8861 20 15.5 20C16.1139 20 16.6285 20.2076 17.0437 20.6229C17.459 21.0382 17.6667 21.5528 17.6667 22.1667C17.6667 22.7806 17.459 23.2951 17.0437 23.7104C16.6285 24.1257 16.1139 24.3333 15.5 24.3333ZM28.5 24.3333C27.8861 24.3333 27.3715 24.1257 26.9562 23.7104C26.541 23.2951 26.3333 22.7806 26.3333 22.1667C26.3333 21.5528 26.541 21.0382 26.9562 20.6229C27.3715 20.2076 27.8861 20 28.5 20C29.1139 20 29.6285 20.2076 30.0437 20.6229C30.459 21.0382 30.6667 21.5528 30.6667 22.1667C30.6667 22.7806 30.459 23.2951 30.0437 23.7104C29.6285 24.1257 29.1139 24.3333 28.5 24.3333ZM9.05417 20.975C8.80139 17.1472 9.95694 13.8611 12.5208 11.1167C15.0847 8.37222 18.2806 7 22.1083 7C25.3222 7 28.1479 8.02014 30.5854 10.0604C33.0229 12.1007 34.4944 14.7097 35 17.8875C31.7139 17.8514 28.6896 16.9667 25.9271 15.2333C23.1646 13.5 21.0431 11.1528 19.5625 8.19167C18.9847 11.0806 17.766 13.6535 15.9062 15.9104C14.0465 18.1674 11.7625 19.8556 9.05417 20.975Z" fill="#EFEFEF"/>
</svg>
